<?xml version="1.0" encoding="iso-8859-1"?>
<!-- Uploaded to: SVG Repo, www.svgrepo.com, Generator: SVG Repo Mixer Tools -->
<svg fill="#000000" height="800px" width="800px" version="1.1" id="Layer_1" xmlns="http://www.w3.org/2000/svg" xmlns:xlink="http://www.w3.org/1999/xlink" 
	 viewBox="0 0 451.857 451.857" xml:space="preserve">
<g>
	<path d="M401.857,105.929H279.635c2.686-6.129,4.187-12.891,4.187-20c0-27.57-22.43-50-50-50H131c-72.233,0-131,58.766-131,131v118
		c0,72.234,58.767,131,131,131h117.715c27.57,0,50-22.43,50-50c0-7.435-1.63-14.493-4.553-20.841
		c23.21-4.315,40.838-24.717,40.838-49.159c0-7.68-1.745-14.958-4.852-21.467c21.789-5.392,37.994-25.101,37.994-48.533
		c0-7.109-1.501-13.871-4.187-20h37.902c27.57,0,50-22.43,50-50S429.428,105.929,401.857,105.929z M401.857,175.929h-83.715H260
		h-11.285v30H260h58.143c11.028,0,20,8.972,20,20s-8.972,20-20,20h-69.428v30H285c11.028,0,20,8.972,20,20s-8.972,20-20,20h-36.285
		v30c11.028,0,20,8.972,20,20s-8.972,20-20,20H131c-55.691,0-101-45.309-101-101v-118c0-55.691,45.309-101,101-101h102.822
		c11.028,0,20,8.972,20,20s-8.972,20-20,20h-80v30h248.035c11.028,0,20,8.972,20,20S412.886,175.929,401.857,175.929z"/>
</g>
</svg>